solid OpenSCAD_Model
  facet normal 0 0 -1
    outer loop
      vertex 16.5092 -9.90499 3.1
      vertex 17.72 -10.155 3.1
      vertex 17.708 -10.3377 3.1
    endloop
  endfacet
  facet normal 0 0 -1
    outer loop
      vertex 17.72 -10.155 3.1
      vertex 16.67 -9.30499 3.1
      vertex 17.72 -4.85499 3.1
    endloop
  endfacet
  facet normal 0 0 -1
    outer loop
      vertex 16.5092 -9.90499 3.1
      vertex 17.708 -10.3377 3.1
      vertex 17.6723 -10.5173 3.1
    endloop
  endfacet
  facet normal 0 0 -1
    outer loop
      vertex 16.67 -5.705 3.1
      vertex 17.72 -4.85499 3.1
      vertex 16.67 -9.30499 3.1
    endloop
  endfacet
  facet normal 0 0 -1
    outer loop
      vertex 16.422 -10.0355 3.1
      vertex 17.6723 -10.5173 3.1
      vertex 17.6134 -10.6907 3.1
    endloop
  endfacet
  facet normal 0 0 -1
    outer loop
      vertex 16.6597 -5.54836 3.1
      vertex 17.72 -4.85499 3.1
      vertex 16.67 -5.705 3.1
    endloop
  endfacet
  facet normal 0 0 -1
    outer loop
      vertex 16.422 -10.0355 3.1
      vertex 17.6134 -10.6907 3.1
      vertex 17.5324 -10.855 3.1
    endloop
  endfacet
  facet normal 0 0 -1
    outer loop
      vertex 16.6291 -5.3944 3.1
      vertex 17.72 -4.85499 3.1
      vertex 16.6597 -5.54836 3.1
    endloop
  endfacet
  facet normal 0 0 -1
    outer loop
      vertex 16.422 -10.0355 3.1
      vertex 17.5324 -10.855 3.1
      vertex 17.4307 -11.0073 3.1
    endloop
  endfacet
  facet normal 0 0 -1
    outer loop
      vertex 16.5786 -5.24577 3.1
      vertex 17.72 -4.85499 3.1
      vertex 16.6291 -5.3944 3.1
    endloop
  endfacet
  facet normal 0 0 -1
    outer loop
      vertex 16.3185 -10.1535 3.1
      vertex 17.4307 -11.0073 3.1
      vertex 17.3099 -11.1449 3.1
    endloop
  endfacet
  facet normal 0 0 -1
    outer loop
      vertex 16.5092 -5.10499 3.1
      vertex 17.72 -4.85499 3.1
      vertex 16.5786 -5.24577 3.1
    endloop
  endfacet
  facet normal 0 0 -1
    outer loop
      vertex 16.3185 -10.1535 3.1
      vertex 17.3099 -11.1449 3.1
      vertex 17.1723 -11.2657 3.1
    endloop
  endfacet
  facet normal -0 0 -1
    outer loop
      vertex 17.72 -4.85499 3.1
      vertex 16.5092 -5.10499 3.1
      vertex 17.708 -4.67225 3.1
    endloop
  endfacet
  facet normal 0 0 -1
    outer loop
      vertex 16.2005 -10.257 3.1
      vertex 17.1723 -11.2657 3.1
      vertex 17.02 -11.3674 3.1
    endloop
  endfacet
  facet normal -0 0 -1
    outer loop
      vertex 17.708 -4.67225 3.1
      vertex 16.5092 -5.10499 3.1
      vertex 17.6723 -4.49264 3.1
    endloop
  endfacet
  facet normal 0 0 -1
    outer loop
      vertex 16.2005 -10.257 3.1
      vertex 17.02 -11.3674 3.1
      vertex 16.8557 -11.4484 3.1
    endloop
  endfacet
  facet normal 0 0 -1
    outer loop
      vertex 16.422 -4.97448 3.1
      vertex 17.6723 -4.49264 3.1
      vertex 16.5092 -5.10499 3.1
    endloop
  endfacet
  facet normal 0 0 -1
    outer loop
      vertex 16.2005 -10.257 3.1
      vertex 16.8557 -11.4484 3.1
      vertex 16.6823 -11.5073 3.1
    endloop
  endfacet
  facet normal -0 0 -1
    outer loop
      vertex 17.6723 -4.49264 3.1
      vertex 16.422 -4.97448 3.1
      vertex 17.6134 -4.31924 3.1
    endloop
  endfacet
  facet normal -0 0 -1
    outer loop
      vertex 17.6134 -4.31924 3.1
      vertex 16.422 -4.97448 3.1
      vertex 17.5324 -4.155 3.1
    endloop
  endfacet
  facet normal 0 0 -1
    outer loop
      vertex 17.72 -10.155 3.1
      vertex 16.6597 -9.46162 3.1
      vertex 16.67 -9.30499 3.1
    endloop
  endfacet
  facet normal 0 0 -1
    outer loop
      vertex 17.72 -10.155 3.1
      vertex 16.6291 -9.61558 3.1
      vertex 16.6597 -9.46162 3.1
    endloop
  endfacet
  facet normal 0 0 -1
    outer loop
      vertex 17.72 -10.155 3.1
      vertex 16.5786 -9.76422 3.1
      vertex 16.6291 -9.61558 3.1
    endloop
  endfacet
  facet normal 0 0 -1
    outer loop
      vertex 17.72 -10.155 3.1
      vertex 16.5092 -9.90499 3.1
      vertex 16.5786 -9.76422 3.1
    endloop
  endfacet
  facet normal 0 0 -1
    outer loop
      vertex 16.07 -10.3442 3.1
      vertex 16.6823 -11.5073 3.1
      vertex 16.5027 -11.543 3.1
    endloop
  endfacet
  facet normal 0 0 -1
    outer loop
      vertex 17.6723 -10.5173 3.1
      vertex 16.422 -10.0355 3.1
      vertex 16.5092 -9.90499 3.1
    endloop
  endfacet
  facet normal 0 0 -1
    outer loop
      vertex 16.07 -10.3442 3.1
      vertex 16.5027 -11.543 3.1
      vertex 16.32 -11.555 3.1
    endloop
  endfacet
  facet normal 0 0 -1
    outer loop
      vertex 17.4307 -11.0073 3.1
      vertex 16.3185 -10.1535 3.1
      vertex 16.422 -10.0355 3.1
    endloop
  endfacet
  facet normal 0 0 -1
    outer loop
      vertex 17.1723 -11.2657 3.1
      vertex 16.2005 -10.257 3.1
      vertex 16.3185 -10.1535 3.1
    endloop
  endfacet
  facet normal 0 0 -1
    outer loop
      vertex 16.6823 -11.5073 3.1
      vertex 16.07 -10.3442 3.1
      vertex 16.2005 -10.257 3.1
    endloop
  endfacet
  facet normal 0 0 -1
    outer loop
      vertex 16.32 -11.555 3.1
      vertex 15.9292 -10.4136 3.1
      vertex 16.07 -10.3442 3.1
    endloop
  endfacet
  facet normal 0 0 -1
    outer loop
      vertex 16.32 -11.555 3.1
      vertex 15.7806 -10.4641 3.1
      vertex 15.9292 -10.4136 3.1
    endloop
  endfacet
  facet normal 0 0 -1
    outer loop
      vertex 16.32 -11.555 3.1
      vertex 15.6266 -10.4947 3.1
      vertex 15.7806 -10.4641 3.1
    endloop
  endfacet
  facet normal 0 0 -1
    outer loop
      vertex 16.32 -11.555 3.1
      vertex 15.47 -10.505 3.1
      vertex 15.6266 -10.4947 3.1
    endloop
  endfacet
  facet normal 0 0 -1
    outer loop
      vertex 16.32 -11.555 3.1
      vertex 5.87 -10.505 3.1
      vertex 15.47 -10.505 3.1
    endloop
  endfacet
  facet normal 0 0 -1
    outer loop
      vertex 5.01999 -11.555 3.1
      vertex 5.87 -10.505 3.1
      vertex 16.32 -11.555 3.1
    endloop
  endfacet
  facet normal -0 0 -1
    outer loop
      vertex 5.87 -10.505 3.1
      vertex 5.01999 -11.555 3.1
      vertex 5.71336 -10.4947 3.1
    endloop
  endfacet
  facet normal 0 0 -1
    outer loop
      vertex 5.01999 -11.555 3.1
      vertex 5.5594 -10.4641 3.1
      vertex 5.71336 -10.4947 3.1
    endloop
  endfacet
  facet normal 0 0 -1
    outer loop
      vertex 5.01999 -11.555 3.1
      vertex 5.41077 -10.4136 3.1
      vertex 5.5594 -10.4641 3.1
    endloop
  endfacet
  facet normal 0 0 -1
    outer loop
      vertex 5.01999 -11.555 3.1
      vertex 5.26999 -10.3442 3.1
      vertex 5.41077 -10.4136 3.1
    endloop
  endfacet
  facet normal 0 0 -1
    outer loop
      vertex 4.83725 -11.543 3.1
      vertex 5.26999 -10.3442 3.1
      vertex 5.01999 -11.555 3.1
    endloop
  endfacet
  facet normal 0 0 -1
    outer loop
      vertex 4.65764 -11.5073 3.1
      vertex 5.26999 -10.3442 3.1
      vertex 4.83725 -11.543 3.1
    endloop
  endfacet
  facet normal -0 0 -1
    outer loop
      vertex 5.26999 -10.3442 3.1
      vertex 4.65764 -11.5073 3.1
      vertex 5.13948 -10.257 3.1
    endloop
  endfacet
  facet normal 0 0 -1
    outer loop
      vertex 4.48424 -11.4484 3.1
      vertex 5.13948 -10.257 3.1
      vertex 4.65764 -11.5073 3.1
    endloop
  endfacet
  facet normal 0 0 -1
    outer loop
      vertex 4.32 -11.3674 3.1
      vertex 5.13948 -10.257 3.1
      vertex 4.48424 -11.4484 3.1
    endloop
  endfacet
  facet normal 0 0 -1
    outer loop
      vertex 4.16773 -11.2657 3.1
      vertex 5.13948 -10.257 3.1
      vertex 4.32 -11.3674 3.1
    endloop
  endfacet
  facet normal -0 0 -1
    outer loop
      vertex 5.13948 -10.257 3.1
      vertex 4.16773 -11.2657 3.1
      vertex 5.02147 -10.1535 3.1
    endloop
  endfacet
  facet normal 0 0 -1
    outer loop
      vertex 4.03005 -11.1449 3.1
      vertex 5.02147 -10.1535 3.1
      vertex 4.16773 -11.2657 3.1
    endloop
  endfacet
  facet normal 0 0 -1
    outer loop
      vertex 3.80756 -10.855 3.1
      vertex 4.91797 -10.0355 3.1
      vertex 3.90929 -11.0073 3.1
    endloop
  endfacet
  facet normal -0 0 -1
    outer loop
      vertex 5.02147 -10.1535 3.1
      vertex 3.90929 -11.0073 3.1
      vertex 4.91797 -10.0355 3.1
    endloop
  endfacet
  facet normal 0 0 -1
    outer loop
      vertex 3.90929 -11.0073 3.1
      vertex 5.02147 -10.1535 3.1
      vertex 4.03005 -11.1449 3.1
    endloop
  endfacet
  facet normal -0 0 -1
    outer loop
      vertex 17.5324 -4.155 3.1
      vertex 16.422 -4.97448 3.1
      vertex 17.4307 -4.00273 3.1
    endloop
  endfacet
  facet normal 0 0 -1
    outer loop
      vertex 16.3185 -4.85647 3.1
      vertex 17.4307 -4.00273 3.1
      vertex 16.422 -4.97448 3.1
    endloop
  endfacet
  facet normal -0 0 -1
    outer loop
      vertex 17.4307 -4.00273 3.1
      vertex 16.3185 -4.85647 3.1
      vertex 17.3099 -3.86505 3.1
    endloop
  endfacet
  facet normal -0 0 -1
    outer loop
      vertex 17.3099 -3.86505 3.1
      vertex 16.3185 -4.85647 3.1
      vertex 17.1723 -3.74429 3.1
    endloop
  endfacet
  facet normal 0 0 -1
    outer loop
      vertex 16.2005 -4.75297 3.1
      vertex 17.1723 -3.74429 3.1
      vertex 16.3185 -4.85647 3.1
    endloop
  endfacet
  facet normal -0 0 -1
    outer loop
      vertex 17.1723 -3.74429 3.1
      vertex 16.2005 -4.75297 3.1
      vertex 17.02 -3.64256 3.1
    endloop
  endfacet
  facet normal -0 0 -1
    outer loop
      vertex 17.02 -3.64256 3.1
      vertex 16.2005 -4.75297 3.1
      vertex 16.8557 -3.56157 3.1
    endloop
  endfacet
  facet normal -0 0 -1
    outer loop
      vertex 16.8557 -3.56157 3.1
      vertex 16.2005 -4.75297 3.1
      vertex 16.6823 -3.5027 3.1
    endloop
  endfacet
  facet normal 0 0 -1
    outer loop
      vertex 16.07 -4.66577 3.1
      vertex 16.6823 -3.5027 3.1
      vertex 16.2005 -4.75297 3.1
    endloop
  endfacet
  facet normal -0 0 -1
    outer loop
      vertex 16.6823 -3.5027 3.1
      vertex 16.07 -4.66577 3.1
      vertex 16.5027 -3.46696 3.1
    endloop
  endfacet
  facet normal -0 0 -1
    outer loop
      vertex 16.5027 -3.46696 3.1
      vertex 16.07 -4.66577 3.1
      vertex 16.32 -3.455 3.1
    endloop
  endfacet
  facet normal 0 0 -1
    outer loop
      vertex 15.9292 -4.59634 3.1
      vertex 16.32 -3.455 3.1
      vertex 16.07 -4.66577 3.1
    endloop
  endfacet
  facet normal 0 0 -1
    outer loop
      vertex 15.7806 -4.54588 3.1
      vertex 16.32 -3.455 3.1
      vertex 15.9292 -4.59634 3.1
    endloop
  endfacet
  facet normal 0 0 -1
    outer loop
      vertex 15.6266 -4.51525 3.1
      vertex 16.32 -3.455 3.1
      vertex 15.7806 -4.54588 3.1
    endloop
  endfacet
  facet normal 0 0 -1
    outer loop
      vertex 15.47 -4.505 3.1
      vertex 16.32 -3.455 3.1
      vertex 15.6266 -4.51525 3.1
    endloop
  endfacet
  facet normal 0 0 -1
    outer loop
      vertex 5.87 -4.505 3.1
      vertex 16.32 -3.455 3.1
      vertex 15.47 -4.505 3.1
    endloop
  endfacet
  facet normal 0 0 -1
    outer loop
      vertex 5.01999 -3.455 3.1
      vertex 5.87 -4.505 3.1
      vertex 5.71336 -4.51525 3.1
    endloop
  endfacet
  facet normal 0 0 -1
    outer loop
      vertex 5.87 -4.505 3.1
      vertex 5.01999 -3.455 3.1
      vertex 16.32 -3.455 3.1
    endloop
  endfacet
  facet normal 0 0 -1
    outer loop
      vertex 5.5594 -4.54588 3.1
      vertex 5.01999 -3.455 3.1
      vertex 5.71336 -4.51525 3.1
    endloop
  endfacet
  facet normal 0 0 -1
    outer loop
      vertex 5.41077 -4.59634 3.1
      vertex 5.01999 -3.455 3.1
      vertex 5.5594 -4.54588 3.1
    endloop
  endfacet
  facet normal 0 0 -1
    outer loop
      vertex 5.26999 -4.66577 3.1
      vertex 5.01999 -3.455 3.1
      vertex 5.41077 -4.59634 3.1
    endloop
  endfacet
  facet normal 0 0 -1
    outer loop
      vertex 4.65764 -3.5027 3.1
      vertex 5.26999 -4.66577 3.1
      vertex 5.13948 -4.75297 3.1
    endloop
  endfacet
  facet normal 0 0 -1
    outer loop
      vertex 4.16773 -3.74429 3.1
      vertex 5.13948 -4.75297 3.1
      vertex 5.02147 -4.85647 3.1
    endloop
  endfacet
  facet normal 0 0 -1
    outer loop
      vertex 3.90929 -4.00273 3.1
      vertex 5.02147 -4.85647 3.1
      vertex 4.91797 -4.97448 3.1
    endloop
  endfacet
  facet normal 0 0 -1
    outer loop
      vertex 5.26999 -4.66577 3.1
      vertex 4.83725 -3.46696 3.1
      vertex 5.01999 -3.455 3.1
    endloop
  endfacet
  facet normal 0 0 -1
    outer loop
      vertex 3.6677 -4.49264 3.1
      vertex 4.91797 -4.97448 3.1
      vertex 4.83077 -5.10499 3.1
    endloop
  endfacet
  facet normal 0 0 -1
    outer loop
      vertex 3.62 -4.85499 3.1
      vertex 4.83077 -5.10499 3.1
      vertex 4.76134 -5.24577 3.1
    endloop
  endfacet
  facet normal 0 0 -1
    outer loop
      vertex 3.62 -4.85499 3.1
      vertex 4.76134 -5.24577 3.1
      vertex 4.71088 -5.3944 3.1
    endloop
  endfacet
  facet normal 0 0 -1
    outer loop
      vertex 3.62 -4.85499 3.1
      vertex 4.71088 -5.3944 3.1
      vertex 4.68025 -5.54836 3.1
    endloop
  endfacet
  facet normal 0 0 -1
    outer loop
      vertex 5.26999 -4.66577 3.1
      vertex 4.65764 -3.5027 3.1
      vertex 4.83725 -3.46696 3.1
    endloop
  endfacet
  facet normal 0 0 -1
    outer loop
      vertex 3.62 -4.85499 3.1
      vertex 4.68025 -5.54836 3.1
      vertex 4.67 -5.705 3.1
    endloop
  endfacet
  facet normal -0 0 -1
    outer loop
      vertex 4.67 -9.30499 3.1
      vertex 3.62 -10.155 3.1
      vertex 4.67 -5.705 3.1
    endloop
  endfacet
  facet normal 0 0 -1
    outer loop
      vertex 3.72657 -10.6907 3.1
      vertex 4.91797 -10.0355 3.1
      vertex 3.80756 -10.855 3.1
    endloop
  endfacet
  facet normal 0 0 -1
    outer loop
      vertex 3.62 -4.85499 3.1
      vertex 4.67 -5.705 3.1
      vertex 3.62 -10.155 3.1
    endloop
  endfacet
  facet normal 0 0 -1
    outer loop
      vertex 3.6677 -10.5173 3.1
      vertex 4.91797 -10.0355 3.1
      vertex 3.72657 -10.6907 3.1
    endloop
  endfacet
  facet normal 0 0 -1
    outer loop
      vertex 4.83077 -5.10499 3.1
      vertex 3.62 -4.85499 3.1
      vertex 3.63196 -4.67225 3.1
    endloop
  endfacet
  facet normal -0 0 -1
    outer loop
      vertex 4.91797 -10.0355 3.1
      vertex 3.6677 -10.5173 3.1
      vertex 4.83077 -9.90499 3.1
    endloop
  endfacet
  facet normal 0 0 -1
    outer loop
      vertex 5.13948 -4.75297 3.1
      vertex 4.48424 -3.56157 3.1
      vertex 4.65764 -3.5027 3.1
    endloop
  endfacet
  facet normal 0 0 -1
    outer loop
      vertex 3.63196 -10.3377 3.1
      vertex 4.83077 -9.90499 3.1
      vertex 3.6677 -10.5173 3.1
    endloop
  endfacet
  facet normal 0 0 -1
    outer loop
      vertex 5.13948 -4.75297 3.1
      vertex 4.32 -3.64256 3.1
      vertex 4.48424 -3.56157 3.1
    endloop
  endfacet
  facet normal 0 0 -1
    outer loop
      vertex 3.62 -10.155 3.1
      vertex 4.83077 -9.90499 3.1
      vertex 3.63196 -10.3377 3.1
    endloop
  endfacet
  facet normal 0 0 -1
    outer loop
      vertex 5.13948 -4.75297 3.1
      vertex 4.16773 -3.74429 3.1
      vertex 4.32 -3.64256 3.1
    endloop
  endfacet
  facet normal -0 0 -1
    outer loop
      vertex 4.83077 -9.90499 3.1
      vertex 3.62 -10.155 3.1
      vertex 4.76134 -9.76422 3.1
    endloop
  endfacet
  facet normal 0 0 -1
    outer loop
      vertex 5.02147 -4.85647 3.1
      vertex 4.03005 -3.86505 3.1
      vertex 4.16773 -3.74429 3.1
    endloop
  endfacet
  facet normal -0 0 -1
    outer loop
      vertex 4.76134 -9.76422 3.1
      vertex 3.62 -10.155 3.1
      vertex 4.71088 -9.61558 3.1
    endloop
  endfacet
  facet normal 0 0 -1
    outer loop
      vertex 5.02147 -4.85647 3.1
      vertex 3.90929 -4.00273 3.1
      vertex 4.03005 -3.86505 3.1
    endloop
  endfacet
  facet normal -0 0 -1
    outer loop
      vertex 4.71088 -9.61558 3.1
      vertex 3.62 -10.155 3.1
      vertex 4.68025 -9.46162 3.1
    endloop
  endfacet
  facet normal 0 0 -1
    outer loop
      vertex 4.91797 -4.97448 3.1
      vertex 3.80756 -4.155 3.1
      vertex 3.90929 -4.00273 3.1
    endloop
  endfacet
  facet normal -0 0 -1
    outer loop
      vertex 4.68025 -9.46162 3.1
      vertex 3.62 -10.155 3.1
      vertex 4.67 -9.30499 3.1
    endloop
  endfacet
  facet normal 0 0 -1
    outer loop
      vertex 4.91797 -4.97448 3.1
      vertex 3.72657 -4.31924 3.1
      vertex 3.80756 -4.155 3.1
    endloop
  endfacet
  facet normal 0 0 -1
    outer loop
      vertex 4.91797 -4.97448 3.1
      vertex 3.6677 -4.49264 3.1
      vertex 3.72657 -4.31924 3.1
    endloop
  endfacet
  facet normal 0 0 -1
    outer loop
      vertex 4.83077 -5.10499 3.1
      vertex 3.63196 -4.67225 3.1
      vertex 3.6677 -4.49264 3.1
    endloop
  endfacet
  facet normal -0.980779 0.195124 0
    outer loop
      vertex 4.68025 -5.54836 1.90735e-07
      vertex 4.71088 -5.3944 3.1
      vertex 4.71088 -5.3944 1.90735e-07
    endloop
  endfacet
  facet normal -0.980779 0.195124 0
    outer loop
      vertex 4.71088 -5.3944 3.1
      vertex 4.68025 -5.54836 1.90735e-07
      vertex 4.68025 -5.54836 3.1
    endloop
  endfacet
  facet normal -1 0 0
    outer loop
      vertex 4.67 -9.30499 1.90735e-07
      vertex 4.67 -5.705 3.1
      vertex 4.67 -5.705 1.90735e-07
    endloop
  endfacet
  facet normal -1 -0 0
    outer loop
      vertex 4.67 -5.705 3.1
      vertex 4.67 -9.30499 1.90735e-07
      vertex 4.67 -9.30499 3.1
    endloop
  endfacet
  facet normal 0.997845 -0.0656183 0
    outer loop
      vertex 16.6597 -9.46162 3.1
      vertex 16.67 -9.30499 1.90735e-07
      vertex 16.67 -9.30499 3.1
    endloop
  endfacet
  facet normal 0.997845 -0.0656183 0
    outer loop
      vertex 16.67 -9.30499 1.90735e-07
      vertex 16.6597 -9.46162 3.1
      vertex 16.6597 -9.46162 1.90735e-07
    endloop
  endfacet
  facet normal -0.997866 0.065297 0
    outer loop
      vertex 4.67 -5.705 1.90735e-07
      vertex 4.68025 -5.54836 3.1
      vertex 4.68025 -5.54836 1.90735e-07
    endloop
  endfacet
  facet normal -0.997866 0.065297 0
    outer loop
      vertex 4.68025 -5.54836 3.1
      vertex 4.67 -5.705 1.90735e-07
      vertex 4.67 -5.705 3.1
    endloop
  endfacet
  facet normal -0.19494 -0.980815 0
    outer loop
      vertex 5.5594 -10.4641 1.90735e-07
      vertex 5.71336 -10.4947 3.1
      vertex 5.5594 -10.4641 3.1
    endloop
  endfacet
  facet normal -0.19494 -0.980815 -0
    outer loop
      vertex 5.71336 -10.4947 3.1
      vertex 5.5594 -10.4641 1.90735e-07
      vertex 5.71336 -10.4947 1.90735e-07
    endloop
  endfacet
  facet normal -0.980779 -0.195124 0
    outer loop
      vertex 4.71088 -9.61558 1.90735e-07
      vertex 4.68025 -9.46162 3.1
      vertex 4.68025 -9.46162 1.90735e-07
    endloop
  endfacet
  facet normal -0.980779 -0.195124 0
    outer loop
      vertex 4.68025 -9.46162 3.1
      vertex 4.71088 -9.61558 1.90735e-07
      vertex 4.71088 -9.61558 3.1
    endloop
  endfacet
  facet normal 0.194891 -0.980825 0
    outer loop
      vertex 15.6266 -10.4947 1.90735e-07
      vertex 15.7806 -10.4641 3.1
      vertex 15.6266 -10.4947 3.1
    endloop
  endfacet
  facet normal 0.194891 -0.980825 0
    outer loop
      vertex 15.7806 -10.4641 3.1
      vertex 15.6266 -10.4947 1.90735e-07
      vertex 15.7806 -10.4641 1.90735e-07
    endloop
  endfacet
  facet normal -0.997866 -0.0653012 0
    outer loop
      vertex 4.68025 -9.46162 1.90735e-07
      vertex 4.67 -9.30499 3.1
      vertex 4.67 -9.30499 1.90735e-07
    endloop
  endfacet
  facet normal -0.997866 -0.0653012 0
    outer loop
      vertex 4.67 -9.30499 3.1
      vertex 4.68025 -9.46162 1.90735e-07
      vertex 4.68025 -9.46162 3.1
    endloop
  endfacet
  facet normal 0 0 -1
    outer loop
      vertex 15.47 -10.505 1.90735e-07
      vertex 16.67 -9.30499 1.90735e-07
      vertex 16.6597 -9.46162 1.90735e-07
    endloop
  endfacet
  facet normal -0 0 -1
    outer loop
      vertex 16.67 -9.30499 1.90735e-07
      vertex 15.47 -10.505 1.90735e-07
      vertex 16.67 -5.705 1.90735e-07
    endloop
  endfacet
  facet normal 0 0 -1
    outer loop
      vertex 15.47 -10.505 1.90735e-07
      vertex 16.6597 -9.46162 1.90735e-07
      vertex 16.6291 -9.61558 1.90735e-07
    endloop
  endfacet
  facet normal 0 0 -1
    outer loop
      vertex 15.47 -4.505 1.90735e-07
      vertex 16.67 -5.705 1.90735e-07
      vertex 15.47 -10.505 1.90735e-07
    endloop
  endfacet
  facet normal 0 0 -1
    outer loop
      vertex 15.47 -10.505 1.90735e-07
      vertex 16.6291 -9.61558 1.90735e-07
      vertex 16.5786 -9.76422 1.90735e-07
    endloop
  endfacet
  facet normal 0 0 -1
    outer loop
      vertex 16.67 -5.705 1.90735e-07
      vertex 15.47 -4.505 1.90735e-07
      vertex 16.6597 -5.54836 1.90735e-07
    endloop
  endfacet
  facet normal 0 0 -1
    outer loop
      vertex 15.47 -10.505 1.90735e-07
      vertex 16.5786 -9.76422 1.90735e-07
      vertex 16.5092 -9.90499 1.90735e-07
    endloop
  endfacet
  facet normal 0 0 -1
    outer loop
      vertex 16.6597 -5.54836 1.90735e-07
      vertex 15.47 -4.505 1.90735e-07
      vertex 16.6291 -5.3944 1.90735e-07
    endloop
  endfacet
  facet normal 0 0 -1
    outer loop
      vertex 15.47 -10.505 1.90735e-07
      vertex 16.5092 -9.90499 1.90735e-07
      vertex 16.422 -10.0355 1.90735e-07
    endloop
  endfacet
  facet normal 0 0 -1
    outer loop
      vertex 16.6291 -5.3944 1.90735e-07
      vertex 15.47 -4.505 1.90735e-07
      vertex 16.5786 -5.24577 1.90735e-07
    endloop
  endfacet
  facet normal 0 0 -1
    outer loop
      vertex 15.47 -10.505 1.90735e-07
      vertex 16.422 -10.0355 1.90735e-07
      vertex 16.3185 -10.1535 1.90735e-07
    endloop
  endfacet
  facet normal 0 0 -1
    outer loop
      vertex 16.5786 -5.24577 1.90735e-07
      vertex 15.47 -4.505 1.90735e-07
      vertex 16.5092 -5.10499 1.90735e-07
    endloop
  endfacet
  facet normal 0 0 -1
    outer loop
      vertex 15.47 -10.505 1.90735e-07
      vertex 16.3185 -10.1535 1.90735e-07
      vertex 16.2005 -10.257 1.90735e-07
    endloop
  endfacet
  facet normal 0 0 -1
    outer loop
      vertex 16.5092 -5.10499 1.90735e-07
      vertex 15.47 -4.505 1.90735e-07
      vertex 16.422 -4.97448 1.90735e-07
    endloop
  endfacet
  facet normal 0 0 -1
    outer loop
      vertex 15.47 -10.505 1.90735e-07
      vertex 16.2005 -10.257 1.90735e-07
      vertex 16.07 -10.3442 1.90735e-07
    endloop
  endfacet
  facet normal 0 0 -1
    outer loop
      vertex 16.422 -4.97448 1.90735e-07
      vertex 15.47 -4.505 1.90735e-07
      vertex 16.3185 -4.85647 1.90735e-07
    endloop
  endfacet
  facet normal 0 0 -1
    outer loop
      vertex 15.47 -10.505 1.90735e-07
      vertex 16.07 -10.3442 1.90735e-07
      vertex 15.9292 -10.4136 1.90735e-07
    endloop
  endfacet
  facet normal 0 0 -1
    outer loop
      vertex 16.3185 -4.85647 1.90735e-07
      vertex 15.47 -4.505 1.90735e-07
      vertex 16.2005 -4.75297 1.90735e-07
    endloop
  endfacet
  facet normal 0 0 -1
    outer loop
      vertex 15.47 -10.505 1.90735e-07
      vertex 15.9292 -10.4136 1.90735e-07
      vertex 15.7806 -10.4641 1.90735e-07
    endloop
  endfacet
  facet normal 0 0 -1
    outer loop
      vertex 16.2005 -4.75297 1.90735e-07
      vertex 15.47 -4.505 1.90735e-07
      vertex 16.07 -4.66577 1.90735e-07
    endloop
  endfacet
  facet normal 0 0 -1
    outer loop
      vertex 15.47 -10.505 1.90735e-07
      vertex 15.7806 -10.4641 1.90735e-07
      vertex 15.6266 -10.4947 1.90735e-07
    endloop
  endfacet
  facet normal 0 0 -1
    outer loop
      vertex 16.07 -4.66577 1.90735e-07
      vertex 15.47 -4.505 1.90735e-07
      vertex 15.9292 -4.59634 1.90735e-07
    endloop
  endfacet
  facet normal 0 0 -1
    outer loop
      vertex 15.9292 -4.59634 1.90735e-07
      vertex 15.47 -4.505 1.90735e-07
      vertex 15.7806 -4.54588 1.90735e-07
    endloop
  endfacet
  facet normal 0 0 -1
    outer loop
      vertex 15.7806 -4.54588 1.90735e-07
      vertex 15.47 -4.505 1.90735e-07
      vertex 15.6266 -4.51525 1.90735e-07
    endloop
  endfacet
  facet normal 0 0 -1
    outer loop
      vertex 5.87 -10.505 1.90735e-07
      vertex 15.47 -4.505 1.90735e-07
      vertex 15.47 -10.505 1.90735e-07
    endloop
  endfacet
  facet normal 0 0 -1
    outer loop
      vertex 5.87 -10.505 1.90735e-07
      vertex 5.87 -4.505 1.90735e-07
      vertex 15.47 -4.505 1.90735e-07
    endloop
  endfacet
  facet normal 0 0 -1
    outer loop
      vertex 4.67 -9.30499 1.90735e-07
      vertex 5.87 -10.505 1.90735e-07
      vertex 5.71336 -10.4947 1.90735e-07
    endloop
  endfacet
  facet normal 0 0 -1
    outer loop
      vertex 5.87 -10.505 1.90735e-07
      vertex 4.67 -9.30499 1.90735e-07
      vertex 5.87 -4.505 1.90735e-07
    endloop
  endfacet
  facet normal 0 0 -1
    outer loop
      vertex 4.67 -9.30499 1.90735e-07
      vertex 5.71336 -10.4947 1.90735e-07
      vertex 5.5594 -10.4641 1.90735e-07
    endloop
  endfacet
  facet normal 0 0 -1
    outer loop
      vertex 4.67 -5.705 1.90735e-07
      vertex 5.87 -4.505 1.90735e-07
      vertex 4.67 -9.30499 1.90735e-07
    endloop
  endfacet
  facet normal 0 0 -1
    outer loop
      vertex 4.67 -9.30499 1.90735e-07
      vertex 5.5594 -10.4641 1.90735e-07
      vertex 5.41077 -10.4136 1.90735e-07
    endloop
  endfacet
  facet normal 0 0 -1
    outer loop
      vertex 5.87 -4.505 1.90735e-07
      vertex 4.67 -5.705 1.90735e-07
      vertex 5.71336 -4.51525 1.90735e-07
    endloop
  endfacet
  facet normal 0 0 -1
    outer loop
      vertex 4.67 -9.30499 1.90735e-07
      vertex 5.41077 -10.4136 1.90735e-07
      vertex 5.26999 -10.3442 1.90735e-07
    endloop
  endfacet
  facet normal 0 0 -1
    outer loop
      vertex 5.71336 -4.51525 1.90735e-07
      vertex 4.67 -5.705 1.90735e-07
      vertex 5.5594 -4.54588 1.90735e-07
    endloop
  endfacet
  facet normal 0 0 -1
    outer loop
      vertex 4.67 -9.30499 1.90735e-07
      vertex 5.26999 -10.3442 1.90735e-07
      vertex 5.13948 -10.257 1.90735e-07
    endloop
  endfacet
  facet normal 0 0 -1
    outer loop
      vertex 5.5594 -4.54588 1.90735e-07
      vertex 4.67 -5.705 1.90735e-07
      vertex 5.41077 -4.59634 1.90735e-07
    endloop
  endfacet
  facet normal 0 0 -1
    outer loop
      vertex 4.67 -9.30499 1.90735e-07
      vertex 5.13948 -10.257 1.90735e-07
      vertex 5.02147 -10.1535 1.90735e-07
    endloop
  endfacet
  facet normal 0 0 -1
    outer loop
      vertex 5.41077 -4.59634 1.90735e-07
      vertex 4.67 -5.705 1.90735e-07
      vertex 5.26999 -4.66577 1.90735e-07
    endloop
  endfacet
  facet normal 0 0 -1
    outer loop
      vertex 4.67 -9.30499 1.90735e-07
      vertex 5.02147 -10.1535 1.90735e-07
      vertex 4.91797 -10.0355 1.90735e-07
    endloop
  endfacet
  facet normal 0 0 -1
    outer loop
      vertex 5.26999 -4.66577 1.90735e-07
      vertex 4.67 -5.705 1.90735e-07
      vertex 5.13948 -4.75297 1.90735e-07
    endloop
  endfacet
  facet normal 0 0 -1
    outer loop
      vertex 4.67 -9.30499 1.90735e-07
      vertex 4.91797 -10.0355 1.90735e-07
      vertex 4.83077 -9.90499 1.90735e-07
    endloop
  endfacet
  facet normal 0 0 -1
    outer loop
      vertex 5.13948 -4.75297 1.90735e-07
      vertex 4.67 -5.705 1.90735e-07
      vertex 5.02147 -4.85647 1.90735e-07
    endloop
  endfacet
  facet normal 0 0 -1
    outer loop
      vertex 4.67 -9.30499 1.90735e-07
      vertex 4.83077 -9.90499 1.90735e-07
      vertex 4.76134 -9.76422 1.90735e-07
    endloop
  endfacet
  facet normal 0 0 -1
    outer loop
      vertex 5.02147 -4.85647 1.90735e-07
      vertex 4.67 -5.705 1.90735e-07
      vertex 4.91797 -4.97448 1.90735e-07
    endloop
  endfacet
  facet normal 0 0 -1
    outer loop
      vertex 4.67 -9.30499 1.90735e-07
      vertex 4.76134 -9.76422 1.90735e-07
      vertex 4.71088 -9.61558 1.90735e-07
    endloop
  endfacet
  facet normal 0 0 -1
    outer loop
      vertex 4.91797 -4.97448 1.90735e-07
      vertex 4.67 -5.705 1.90735e-07
      vertex 4.83077 -5.10499 1.90735e-07
    endloop
  endfacet
  facet normal 0 0 -1
    outer loop
      vertex 4.67 -9.30499 1.90735e-07
      vertex 4.71088 -9.61558 1.90735e-07
      vertex 4.68025 -9.46162 1.90735e-07
    endloop
  endfacet
  facet normal 0 0 -1
    outer loop
      vertex 4.83077 -5.10499 1.90735e-07
      vertex 4.67 -5.705 1.90735e-07
      vertex 4.76134 -5.24577 1.90735e-07
    endloop
  endfacet
  facet normal 0 0 -1
    outer loop
      vertex 4.76134 -5.24577 1.90735e-07
      vertex 4.67 -5.705 1.90735e-07
      vertex 4.71088 -5.3944 1.90735e-07
    endloop
  endfacet
  facet normal 0 0 -1
    outer loop
      vertex 4.71088 -5.3944 1.90735e-07
      vertex 4.67 -5.705 1.90735e-07
      vertex 4.68025 -5.54836 1.90735e-07
    endloop
  endfacet
  facet normal 0.751787 -0.659406 0
    outer loop
      vertex 16.3185 -10.1535 3.1
      vertex 16.422 -10.0355 1.90735e-07
      vertex 16.422 -10.0355 3.1
    endloop
  endfacet
  facet normal 0.751787 -0.659406 0
    outer loop
      vertex 16.422 -10.0355 1.90735e-07
      vertex 16.3185 -10.1535 3.1
      vertex 16.3185 -10.1535 1.90735e-07
    endloop
  endfacet
  facet normal 0 -1 0
    outer loop
      vertex 5.87 -10.505 1.90735e-07
      vertex 15.47 -10.505 3.1
      vertex 5.87 -10.505 3.1
    endloop
  endfacet
  facet normal 0 -1 -0
    outer loop
      vertex 15.47 -10.505 3.1
      vertex 5.87 -10.505 1.90735e-07
      vertex 15.47 -10.505 1.90735e-07
    endloop
  endfacet
  facet normal -0.0656142 -0.997845 0
    outer loop
      vertex 5.71336 -10.4947 1.90735e-07
      vertex 5.87 -10.505 3.1
      vertex 5.71336 -10.4947 3.1
    endloop
  endfacet
  facet normal -0.0656142 -0.997845 -0
    outer loop
      vertex 5.87 -10.505 3.1
      vertex 5.71336 -10.4947 1.90735e-07
      vertex 5.87 -10.505 1.90735e-07
    endloop
  endfacet
  facet normal 0.0656309 -0.997844 0
    outer loop
      vertex 15.47 -10.505 1.90735e-07
      vertex 15.6266 -10.4947 3.1
      vertex 15.47 -10.505 3.1
    endloop
  endfacet
  facet normal 0.0656309 -0.997844 0
    outer loop
      vertex 15.6266 -10.4947 3.1
      vertex 15.47 -10.505 1.90735e-07
      vertex 15.6266 -10.4947 1.90735e-07
    endloop
  endfacet
  facet normal -0.751787 -0.659406 0
    outer loop
      vertex 5.02147 -10.1535 1.90735e-07
      vertex 4.91797 -10.0355 3.1
      vertex 4.91797 -10.0355 1.90735e-07
    endloop
  endfacet
  facet normal -0.751787 -0.659406 0
    outer loop
      vertex 4.91797 -10.0355 3.1
      vertex 5.02147 -10.1535 1.90735e-07
      vertex 5.02147 -10.1535 3.1
    endloop
  endfacet
  facet normal 0.997845 0.0656142 0
    outer loop
      vertex 16.67 -5.705 3.1
      vertex 16.6597 -5.54836 1.90735e-07
      vertex 16.6597 -5.54836 3.1
    endloop
  endfacet
  facet normal 0.997845 0.0656142 0
    outer loop
      vertex 16.6597 -5.54836 1.90735e-07
      vertex 16.67 -5.705 3.1
      vertex 16.67 -5.705 1.90735e-07
    endloop
  endfacet
  facet normal -0.065297 0.997866 0
    outer loop
      vertex 5.87 -4.505 1.90735e-07
      vertex 5.71336 -4.51525 3.1
      vertex 5.87 -4.505 3.1
    endloop
  endfacet
  facet normal -0.065297 0.997866 0
    outer loop
      vertex 5.71336 -4.51525 3.1
      vertex 5.87 -4.505 1.90735e-07
      vertex 5.71336 -4.51525 1.90735e-07
    endloop
  endfacet
  facet normal 0.0653136 0.997865 -0
    outer loop
      vertex 15.6266 -4.51525 1.90735e-07
      vertex 15.47 -4.505 3.1
      vertex 15.6266 -4.51525 3.1
    endloop
  endfacet
  facet normal 0.0653136 0.997865 0
    outer loop
      vertex 15.47 -4.505 3.1
      vertex 15.6266 -4.51525 1.90735e-07
      vertex 15.47 -4.505 1.90735e-07
    endloop
  endfacet
  facet normal 0.946846 -0.321688 0
    outer loop
      vertex 16.5786 -9.76422 3.1
      vertex 16.6291 -9.61558 1.90735e-07
      vertex 16.6291 -9.61558 3.1
    endloop
  endfacet
  facet normal 0.946846 -0.321688 0
    outer loop
      vertex 16.6291 -9.61558 1.90735e-07
      vertex 16.5786 -9.76422 3.1
      vertex 16.5786 -9.76422 1.90735e-07
    endloop
  endfacet
  facet normal 0.980815 -0.19494 0
    outer loop
      vertex 16.6291 -9.61558 3.1
      vertex 16.6597 -9.46162 1.90735e-07
      vertex 16.6597 -9.46162 3.1
    endloop
  endfacet
  facet normal 0.980815 -0.19494 0
    outer loop
      vertex 16.6597 -9.46162 1.90735e-07
      vertex 16.6291 -9.61558 3.1
      vertex 16.6291 -9.61558 1.90735e-07
    endloop
  endfacet
  facet normal 0.44211 -0.896961 0
    outer loop
      vertex 15.9292 -10.4136 1.90735e-07
      vertex 16.07 -10.3442 3.1
      vertex 15.9292 -10.4136 3.1
    endloop
  endfacet
  facet normal 0.44211 -0.896961 0
    outer loop
      vertex 16.07 -10.3442 3.1
      vertex 15.9292 -10.4136 1.90735e-07
      vertex 16.07 -10.3442 1.90735e-07
    endloop
  endfacet
  facet normal 0.321766 -0.946819 0
    outer loop
      vertex 15.7806 -10.4641 1.90735e-07
      vertex 15.9292 -10.4136 3.1
      vertex 15.7806 -10.4641 3.1
    endloop
  endfacet
  facet normal 0.321766 -0.946819 0
    outer loop
      vertex 15.9292 -10.4136 3.1
      vertex 15.7806 -10.4641 1.90735e-07
      vertex 15.9292 -10.4136 1.90735e-07
    endloop
  endfacet
  facet normal 0.659406 -0.751787 0
    outer loop
      vertex 16.2005 -10.257 1.90735e-07
      vertex 16.3185 -10.1535 3.1
      vertex 16.2005 -10.257 3.1
    endloop
  endfacet
  facet normal 0.659406 -0.751787 0
    outer loop
      vertex 16.3185 -10.1535 3.1
      vertex 16.2005 -10.257 1.90735e-07
      vertex 16.3185 -10.1535 1.90735e-07
    endloop
  endfacet
  facet normal -0.555553 -0.831481 0
    outer loop
      vertex 5.13948 -10.257 1.90735e-07
      vertex 5.26999 -10.3442 3.1
      vertex 5.13948 -10.257 3.1
    endloop
  endfacet
  facet normal -0.555553 -0.831481 -0
    outer loop
      vertex 5.26999 -10.3442 3.1
      vertex 5.13948 -10.257 1.90735e-07
      vertex 5.26999 -10.3442 1.90735e-07
    endloop
  endfacet
  facet normal -0.321707 -0.946839 0
    outer loop
      vertex 5.41077 -10.4136 1.90735e-07
      vertex 5.5594 -10.4641 3.1
      vertex 5.41077 -10.4136 3.1
    endloop
  endfacet
  facet normal -0.321707 -0.946839 -0
    outer loop
      vertex 5.5594 -10.4641 3.1
      vertex 5.41077 -10.4136 1.90735e-07
      vertex 5.5594 -10.4641 1.90735e-07
    endloop
  endfacet
  facet normal -0.659375 -0.751815 0
    outer loop
      vertex 5.02147 -10.1535 1.90735e-07
      vertex 5.13948 -10.257 3.1
      vertex 5.02147 -10.1535 3.1
    endloop
  endfacet
  facet normal -0.659375 -0.751815 -0
    outer loop
      vertex 5.13948 -10.257 3.1
      vertex 5.02147 -10.1535 1.90735e-07
      vertex 5.13948 -10.257 1.90735e-07
    endloop
  endfacet
  facet normal -0.896848 -0.44234 0
    outer loop
      vertex 4.83077 -9.90499 1.90735e-07
      vertex 4.76134 -9.76422 3.1
      vertex 4.76134 -9.76422 1.90735e-07
    endloop
  endfacet
  facet normal -0.896848 -0.44234 0
    outer loop
      vertex 4.76134 -9.76422 3.1
      vertex 4.83077 -9.90499 1.90735e-07
      vertex 4.83077 -9.90499 3.1
    endloop
  endfacet
  facet normal -0.946923 -0.32146 0
    outer loop
      vertex 4.76134 -9.76422 1.90735e-07
      vertex 4.71088 -9.61558 3.1
      vertex 4.71088 -9.61558 1.90735e-07
    endloop
  endfacet
  facet normal -0.946923 -0.32146 0
    outer loop
      vertex 4.71088 -9.61558 3.1
      vertex 4.76134 -9.76422 1.90735e-07
      vertex 4.76134 -9.76422 3.1
    endloop
  endfacet
  facet normal -0.831481 -0.555553 0
    outer loop
      vertex 4.91797 -10.0355 1.90735e-07
      vertex 4.83077 -9.90499 3.1
      vertex 4.83077 -9.90499 1.90735e-07
    endloop
  endfacet
  facet normal -0.831481 -0.555553 0
    outer loop
      vertex 4.83077 -9.90499 3.1
      vertex 4.91797 -10.0355 1.90735e-07
      vertex 4.91797 -10.0355 3.1
    endloop
  endfacet
  facet normal 0.442264 0.896885 -0
    outer loop
      vertex 16.07 -4.66577 1.90735e-07
      vertex 15.9292 -4.59634 3.1
      vertex 16.07 -4.66577 3.1
    endloop
  endfacet
  facet normal 0.442264 0.896885 0
    outer loop
      vertex 15.9292 -4.59634 3.1
      vertex 16.07 -4.66577 1.90735e-07
      vertex 15.9292 -4.59634 1.90735e-07
    endloop
  endfacet
  facet normal 0.659406 0.751787 -0
    outer loop
      vertex 16.3185 -4.85647 1.90735e-07
      vertex 16.2005 -4.75297 3.1
      vertex 16.3185 -4.85647 3.1
    endloop
  endfacet
  facet normal 0.659406 0.751787 0
    outer loop
      vertex 16.2005 -4.75297 3.1
      vertex 16.3185 -4.85647 1.90735e-07
      vertex 16.2005 -4.75297 1.90735e-07
    endloop
  endfacet
  facet normal 0.946839 0.321707 0
    outer loop
      vertex 16.6291 -5.3944 3.1
      vertex 16.5786 -5.24577 1.90735e-07
      vertex 16.5786 -5.24577 3.1
    endloop
  endfacet
  facet normal 0.946839 0.321707 0
    outer loop
      vertex 16.5786 -5.24577 1.90735e-07
      vertex 16.6291 -5.3944 3.1
      vertex 16.6291 -5.3944 1.90735e-07
    endloop
  endfacet
  facet normal 0.831481 0.555553 0
    outer loop
      vertex 16.5092 -5.10499 3.1
      vertex 16.422 -4.97448 1.90735e-07
      vertex 16.422 -4.97448 3.1
    endloop
  endfacet
  facet normal 0.831481 0.555553 0
    outer loop
      vertex 16.422 -4.97448 1.90735e-07
      vertex 16.5092 -5.10499 3.1
      vertex 16.5092 -5.10499 1.90735e-07
    endloop
  endfacet
  facet normal 1 -0 0
    outer loop
      vertex 16.67 -9.30499 3.1
      vertex 16.67 -5.705 1.90735e-07
      vertex 16.67 -5.705 3.1
    endloop
  endfacet
  facet normal 1 0 0
    outer loop
      vertex 16.67 -5.705 1.90735e-07
      vertex 16.67 -9.30499 3.1
      vertex 16.67 -9.30499 1.90735e-07
    endloop
  endfacet
  facet normal 0 1 -0
    outer loop
      vertex 15.47 -4.505 1.90735e-07
      vertex 5.87 -4.505 3.1
      vertex 15.47 -4.505 3.1
    endloop
  endfacet
  facet normal 0 1 0
    outer loop
      vertex 5.87 -4.505 3.1
      vertex 15.47 -4.505 1.90735e-07
      vertex 5.87 -4.505 1.90735e-07
    endloop
  endfacet
  facet normal 0.195075 0.980788 -0
    outer loop
      vertex 15.7806 -4.54588 1.90735e-07
      vertex 15.6266 -4.51525 3.1
      vertex 15.7806 -4.54588 3.1
    endloop
  endfacet
  facet normal 0.195075 0.980788 0
    outer loop
      vertex 15.6266 -4.51525 3.1
      vertex 15.7806 -4.54588 1.90735e-07
      vertex 15.6266 -4.51525 1.90735e-07
    endloop
  endfacet
  facet normal -0.555553 0.831481 0
    outer loop
      vertex 5.26999 -4.66577 1.90735e-07
      vertex 5.13948 -4.75297 3.1
      vertex 5.26999 -4.66577 3.1
    endloop
  endfacet
  facet normal -0.555553 0.831481 0
    outer loop
      vertex 5.13948 -4.75297 3.1
      vertex 5.26999 -4.66577 1.90735e-07
      vertex 5.13948 -4.75297 1.90735e-07
    endloop
  endfacet
  facet normal -0.321479 0.946917 0
    outer loop
      vertex 5.5594 -4.54588 1.90735e-07
      vertex 5.41077 -4.59634 3.1
      vertex 5.5594 -4.54588 3.1
    endloop
  endfacet
  facet normal -0.321479 0.946917 0
    outer loop
      vertex 5.41077 -4.59634 3.1
      vertex 5.5594 -4.54588 1.90735e-07
      vertex 5.41077 -4.59634 1.90735e-07
    endloop
  endfacet
  facet normal -0.751815 0.659375 0
    outer loop
      vertex 4.91797 -4.97448 1.90735e-07
      vertex 5.02147 -4.85647 3.1
      vertex 5.02147 -4.85647 1.90735e-07
    endloop
  endfacet
  facet normal -0.751815 0.659375 0
    outer loop
      vertex 5.02147 -4.85647 3.1
      vertex 4.91797 -4.97448 1.90735e-07
      vertex 4.91797 -4.97448 3.1
    endloop
  endfacet
  facet normal -0.831481 0.555553 0
    outer loop
      vertex 4.83077 -5.10499 1.90735e-07
      vertex 4.91797 -4.97448 3.1
      vertex 4.91797 -4.97448 1.90735e-07
    endloop
  endfacet
  facet normal -0.831481 0.555553 0
    outer loop
      vertex 4.91797 -4.97448 3.1
      vertex 4.83077 -5.10499 1.90735e-07
      vertex 4.83077 -5.10499 3.1
    endloop
  endfacet
  facet normal -0.946917 0.321479 0
    outer loop
      vertex 4.71088 -5.3944 1.90735e-07
      vertex 4.76134 -5.24577 3.1
      vertex 4.76134 -5.24577 1.90735e-07
    endloop
  endfacet
  facet normal -0.946917 0.321479 0
    outer loop
      vertex 4.76134 -5.24577 3.1
      vertex 4.71088 -5.3944 1.90735e-07
      vertex 4.71088 -5.3944 3.1
    endloop
  endfacet
  facet normal 0.831481 -0.555553 0
    outer loop
      vertex 16.422 -10.0355 3.1
      vertex 16.5092 -9.90499 1.90735e-07
      vertex 16.5092 -9.90499 3.1
    endloop
  endfacet
  facet normal 0.831481 -0.555553 0
    outer loop
      vertex 16.5092 -9.90499 1.90735e-07
      vertex 16.422 -10.0355 3.1
      vertex 16.422 -10.0355 1.90735e-07
    endloop
  endfacet
  facet normal 0.896923 -0.442186 0
    outer loop
      vertex 16.5092 -9.90499 3.1
      vertex 16.5786 -9.76422 1.90735e-07
      vertex 16.5786 -9.76422 3.1
    endloop
  endfacet
  facet normal 0.896923 -0.442186 0
    outer loop
      vertex 16.5786 -9.76422 1.90735e-07
      vertex 16.5092 -9.90499 3.1
      vertex 16.5092 -9.90499 1.90735e-07
    endloop
  endfacet
  facet normal 0.555582 -0.831462 0
    outer loop
      vertex 16.07 -10.3442 1.90735e-07
      vertex 16.2005 -10.257 3.1
      vertex 16.07 -10.3442 3.1
    endloop
  endfacet
  facet normal 0.555582 -0.831462 0
    outer loop
      vertex 16.2005 -10.257 3.1
      vertex 16.07 -10.3442 1.90735e-07
      vertex 16.2005 -10.257 1.90735e-07
    endloop
  endfacet
  facet normal -0.44216 -0.896936 0
    outer loop
      vertex 5.26999 -10.3442 1.90735e-07
      vertex 5.41077 -10.4136 3.1
      vertex 5.26999 -10.3442 3.1
    endloop
  endfacet
  facet normal -0.44216 -0.896936 -0
    outer loop
      vertex 5.41077 -10.4136 3.1
      vertex 5.26999 -10.3442 1.90735e-07
      vertex 5.41077 -10.4136 1.90735e-07
    endloop
  endfacet
  facet normal 0.555582 0.831462 -0
    outer loop
      vertex 16.2005 -4.75297 1.90735e-07
      vertex 16.07 -4.66577 3.1
      vertex 16.2005 -4.75297 3.1
    endloop
  endfacet
  facet normal 0.555582 0.831462 0
    outer loop
      vertex 16.07 -4.66577 3.1
      vertex 16.2005 -4.75297 1.90735e-07
      vertex 16.07 -4.66577 1.90735e-07
    endloop
  endfacet
  facet normal 0.751815 0.659375 0
    outer loop
      vertex 16.422 -4.97448 3.1
      vertex 16.3185 -4.85647 1.90735e-07
      vertex 16.3185 -4.85647 3.1
    endloop
  endfacet
  facet normal 0.751815 0.659375 0
    outer loop
      vertex 16.3185 -4.85647 1.90735e-07
      vertex 16.422 -4.97448 3.1
      vertex 16.422 -4.97448 1.90735e-07
    endloop
  endfacet
  facet normal 0.980815 0.19494 0
    outer loop
      vertex 16.6597 -5.54836 3.1
      vertex 16.6291 -5.3944 1.90735e-07
      vertex 16.6291 -5.3944 3.1
    endloop
  endfacet
  facet normal 0.980815 0.19494 0
    outer loop
      vertex 16.6291 -5.3944 1.90735e-07
      vertex 16.6597 -5.54836 3.1
      vertex 16.6597 -5.54836 1.90735e-07
    endloop
  endfacet
  facet normal 0.896936 0.44216 0
    outer loop
      vertex 16.5786 -5.24577 3.1
      vertex 16.5092 -5.10499 1.90735e-07
      vertex 16.5092 -5.10499 3.1
    endloop
  endfacet
  facet normal 0.896936 0.44216 0
    outer loop
      vertex 16.5092 -5.10499 1.90735e-07
      vertex 16.5786 -5.24577 3.1
      vertex 16.5786 -5.24577 1.90735e-07
    endloop
  endfacet
  facet normal 0.321537 0.946897 -0
    outer loop
      vertex 15.9292 -4.59634 1.90735e-07
      vertex 15.7806 -4.54588 3.1
      vertex 15.9292 -4.59634 3.1
    endloop
  endfacet
  facet normal 0.321537 0.946897 0
    outer loop
      vertex 15.7806 -4.54588 3.1
      vertex 15.9292 -4.59634 1.90735e-07
      vertex 15.7806 -4.54588 1.90735e-07
    endloop
  endfacet
  facet normal -0.442314 0.89686 0
    outer loop
      vertex 5.41077 -4.59634 1.90735e-07
      vertex 5.26999 -4.66577 3.1
      vertex 5.41077 -4.59634 3.1
    endloop
  endfacet
  facet normal -0.442314 0.89686 0
    outer loop
      vertex 5.26999 -4.66577 3.1
      vertex 5.41077 -4.59634 1.90735e-07
      vertex 5.26999 -4.66577 1.90735e-07
    endloop
  endfacet
  facet normal -0.195124 0.980779 0
    outer loop
      vertex 5.71336 -4.51525 1.90735e-07
      vertex 5.5594 -4.54588 3.1
      vertex 5.71336 -4.51525 3.1
    endloop
  endfacet
  facet normal -0.195124 0.980779 0
    outer loop
      vertex 5.5594 -4.54588 3.1
      vertex 5.71336 -4.51525 1.90735e-07
      vertex 5.5594 -4.54588 1.90735e-07
    endloop
  endfacet
  facet normal -0.659375 0.751815 0
    outer loop
      vertex 5.13948 -4.75297 1.90735e-07
      vertex 5.02147 -4.85647 3.1
      vertex 5.13948 -4.75297 3.1
    endloop
  endfacet
  facet normal -0.659375 0.751815 0
    outer loop
      vertex 5.02147 -4.85647 3.1
      vertex 5.13948 -4.75297 1.90735e-07
      vertex 5.02147 -4.85647 1.90735e-07
    endloop
  endfacet
  facet normal -0.89686 0.442314 0
    outer loop
      vertex 4.76134 -5.24577 1.90735e-07
      vertex 4.83077 -5.10499 3.1
      vertex 4.83077 -5.10499 1.90735e-07
    endloop
  endfacet
  facet normal -0.89686 0.442314 0
    outer loop
      vertex 4.83077 -5.10499 3.1
      vertex 4.76134 -5.24577 1.90735e-07
      vertex 4.76134 -5.24577 3.1
    endloop
  endfacet
  facet normal 0 0 1
    outer loop
      vertex 16.32 -3.455 4.1
      vertex 17.72 -4.85499 4.1
      vertex 17.708 -4.67225 4.1
    endloop
  endfacet
  facet normal 0 0 1
    outer loop
      vertex 17.72 -4.85499 4.1
      vertex 16.32 -3.455 4.1
      vertex 17.72 -10.155 4.1
    endloop
  endfacet
  facet normal 0 0 1
    outer loop
      vertex 16.32 -3.455 4.1
      vertex 17.708 -4.67225 4.1
      vertex 17.6723 -4.49264 4.1
    endloop
  endfacet
  facet normal 0 0 1
    outer loop
      vertex 16.32 -11.555 4.1
      vertex 17.72 -10.155 4.1
      vertex 16.32 -3.455 4.1
    endloop
  endfacet
  facet normal 0 0 1
    outer loop
      vertex 16.32 -3.455 4.1
      vertex 17.6723 -4.49264 4.1
      vertex 17.6134 -4.31924 4.1
    endloop
  endfacet
  facet normal 0 0 1
    outer loop
      vertex 17.72 -10.155 4.1
      vertex 16.32 -11.555 4.1
      vertex 17.708 -10.3377 4.1
    endloop
  endfacet
  facet normal 0 0 1
    outer loop
      vertex 16.32 -3.455 4.1
      vertex 17.6134 -4.31924 4.1
      vertex 17.5324 -4.155 4.1
    endloop
  endfacet
  facet normal 0 0 1
    outer loop
      vertex 17.708 -10.3377 4.1
      vertex 16.32 -11.555 4.1
      vertex 17.6723 -10.5173 4.1
    endloop
  endfacet
  facet normal 0 0 1
    outer loop
      vertex 16.32 -3.455 4.1
      vertex 17.5324 -4.155 4.1
      vertex 17.4307 -4.00273 4.1
    endloop
  endfacet
  facet normal 0 0 1
    outer loop
      vertex 17.6723 -10.5173 4.1
      vertex 16.32 -11.555 4.1
      vertex 17.6134 -10.6907 4.1
    endloop
  endfacet
  facet normal 0 0 1
    outer loop
      vertex 16.32 -3.455 4.1
      vertex 17.4307 -4.00273 4.1
      vertex 17.3099 -3.86505 4.1
    endloop
  endfacet
  facet normal 0 0 1
    outer loop
      vertex 17.6134 -10.6907 4.1
      vertex 16.32 -11.555 4.1
      vertex 17.5324 -10.855 4.1
    endloop
  endfacet
  facet normal 0 0 1
    outer loop
      vertex 16.32 -3.455 4.1
      vertex 17.3099 -3.86505 4.1
      vertex 17.1723 -3.74429 4.1
    endloop
  endfacet
  facet normal 0 0 1
    outer loop
      vertex 17.5324 -10.855 4.1
      vertex 16.32 -11.555 4.1
      vertex 17.4307 -11.0073 4.1
    endloop
  endfacet
  facet normal 0 0 1
    outer loop
      vertex 16.32 -3.455 4.1
      vertex 17.1723 -3.74429 4.1
      vertex 17.02 -3.64256 4.1
    endloop
  endfacet
  facet normal 0 0 1
    outer loop
      vertex 17.4307 -11.0073 4.1
      vertex 16.32 -11.555 4.1
      vertex 17.3099 -11.1449 4.1
    endloop
  endfacet
  facet normal 0 0 1
    outer loop
      vertex 16.32 -3.455 4.1
      vertex 17.02 -3.64256 4.1
      vertex 16.8557 -3.56157 4.1
    endloop
  endfacet
  facet normal 0 0 1
    outer loop
      vertex 17.3099 -11.1449 4.1
      vertex 16.32 -11.555 4.1
      vertex 17.1723 -11.2657 4.1
    endloop
  endfacet
  facet normal 0 0 1
    outer loop
      vertex 16.32 -3.455 4.1
      vertex 16.8557 -3.56157 4.1
      vertex 16.6823 -3.5027 4.1
    endloop
  endfacet
  facet normal 0 0 1
    outer loop
      vertex 17.1723 -11.2657 4.1
      vertex 16.32 -11.555 4.1
      vertex 17.02 -11.3674 4.1
    endloop
  endfacet
  facet normal 0 0 1
    outer loop
      vertex 16.32 -3.455 4.1
      vertex 16.6823 -3.5027 4.1
      vertex 16.5027 -3.46696 4.1
    endloop
  endfacet
  facet normal 0 0 1
    outer loop
      vertex 17.02 -11.3674 4.1
      vertex 16.32 -11.555 4.1
      vertex 16.8557 -11.4484 4.1
    endloop
  endfacet
  facet normal 0 0 1
    outer loop
      vertex 16.8557 -11.4484 4.1
      vertex 16.32 -11.555 4.1
      vertex 16.6823 -11.5073 4.1
    endloop
  endfacet
  facet normal 0 0 1
    outer loop
      vertex 16.6823 -11.5073 4.1
      vertex 16.32 -11.555 4.1
      vertex 16.5027 -11.543 4.1
    endloop
  endfacet
  facet normal -0 0 1
    outer loop
      vertex 5.01999 -3.455 4.1
      vertex 16.32 -11.555 4.1
      vertex 16.32 -3.455 4.1
    endloop
  endfacet
  facet normal 0 0 1
    outer loop
      vertex 5.01999 -3.455 4.1
      vertex 5.01999 -11.555 4.1
      vertex 16.32 -11.555 4.1
    endloop
  endfacet
  facet normal 0 0 1
    outer loop
      vertex 3.62 -4.85499 4.1
      vertex 5.01999 -3.455 4.1
      vertex 4.83725 -3.46696 4.1
    endloop
  endfacet
  facet normal 0 0 1
    outer loop
      vertex 5.01999 -3.455 4.1
      vertex 3.62 -4.85499 4.1
      vertex 5.01999 -11.555 4.1
    endloop
  endfacet
  facet normal 0 0 1
    outer loop
      vertex 3.62 -4.85499 4.1
      vertex 4.83725 -3.46696 4.1
      vertex 4.65764 -3.5027 4.1
    endloop
  endfacet
  facet normal -0 0 1
    outer loop
      vertex 3.62 -10.155 4.1
      vertex 5.01999 -11.555 4.1
      vertex 3.62 -4.85499 4.1
    endloop
  endfacet
  facet normal 0 0 1
    outer loop
      vertex 3.62 -4.85499 4.1
      vertex 4.65764 -3.5027 4.1
      vertex 4.48424 -3.56157 4.1
    endloop
  endfacet
  facet normal 0 0 1
    outer loop
      vertex 5.01999 -11.555 4.1
      vertex 3.62 -10.155 4.1
      vertex 4.83725 -11.543 4.1
    endloop
  endfacet
  facet normal 0 0 1
    outer loop
      vertex 3.62 -4.85499 4.1
      vertex 4.48424 -3.56157 4.1
      vertex 4.32 -3.64256 4.1
    endloop
  endfacet
  facet normal 0 0 1
    outer loop
      vertex 4.83725 -11.543 4.1
      vertex 3.62 -10.155 4.1
      vertex 4.65764 -11.5073 4.1
    endloop
  endfacet
  facet normal 0 0 1
    outer loop
      vertex 3.62 -4.85499 4.1
      vertex 4.32 -3.64256 4.1
      vertex 4.16773 -3.74429 4.1
    endloop
  endfacet
  facet normal 0 0 1
    outer loop
      vertex 4.65764 -11.5073 4.1
      vertex 3.62 -10.155 4.1
      vertex 4.48424 -11.4484 4.1
    endloop
  endfacet
  facet normal 0 0 1
    outer loop
      vertex 3.62 -4.85499 4.1
      vertex 4.16773 -3.74429 4.1
      vertex 4.03005 -3.86505 4.1
    endloop
  endfacet
  facet normal 0 0 1
    outer loop
      vertex 4.48424 -11.4484 4.1
      vertex 3.62 -10.155 4.1
      vertex 4.32 -11.3674 4.1
    endloop
  endfacet
  facet normal 0 0 1
    outer loop
      vertex 3.62 -4.85499 4.1
      vertex 4.03005 -3.86505 4.1
      vertex 3.90929 -4.00273 4.1
    endloop
  endfacet
  facet normal 0 0 1
    outer loop
      vertex 4.32 -11.3674 4.1
      vertex 3.62 -10.155 4.1
      vertex 4.16773 -11.2657 4.1
    endloop
  endfacet
  facet normal 0 0 1
    outer loop
      vertex 3.62 -4.85499 4.1
      vertex 3.90929 -4.00273 4.1
      vertex 3.80756 -4.155 4.1
    endloop
  endfacet
  facet normal 0 0 1
    outer loop
      vertex 4.16773 -11.2657 4.1
      vertex 3.62 -10.155 4.1
      vertex 4.03005 -11.1449 4.1
    endloop
  endfacet
  facet normal 0 0 1
    outer loop
      vertex 3.62 -4.85499 4.1
      vertex 3.80756 -4.155 4.1
      vertex 3.72657 -4.31924 4.1
    endloop
  endfacet
  facet normal 0 0 1
    outer loop
      vertex 4.03005 -11.1449 4.1
      vertex 3.62 -10.155 4.1
      vertex 3.90929 -11.0073 4.1
    endloop
  endfacet
  facet normal 0 0 1
    outer loop
      vertex 3.62 -4.85499 4.1
      vertex 3.72657 -4.31924 4.1
      vertex 3.6677 -4.49264 4.1
    endloop
  endfacet
  facet normal 0 0 1
    outer loop
      vertex 3.90929 -11.0073 4.1
      vertex 3.62 -10.155 4.1
      vertex 3.80756 -10.855 4.1
    endloop
  endfacet
  facet normal 0 0 1
    outer loop
      vertex 3.62 -4.85499 4.1
      vertex 3.6677 -4.49264 4.1
      vertex 3.63196 -4.67225 4.1
    endloop
  endfacet
  facet normal 0 0 1
    outer loop
      vertex 3.80756 -10.855 4.1
      vertex 3.62 -10.155 4.1
      vertex 3.72657 -10.6907 4.1
    endloop
  endfacet
  facet normal 0 0 1
    outer loop
      vertex 3.72657 -10.6907 4.1
      vertex 3.62 -10.155 4.1
      vertex 3.6677 -10.5173 4.1
    endloop
  endfacet
  facet normal 0 0 1
    outer loop
      vertex 3.6677 -10.5173 4.1
      vertex 3.62 -10.155 4.1
      vertex 3.63196 -10.3377 4.1
    endloop
  endfacet
  facet normal -0.980771 0.19516 0
    outer loop
      vertex 3.63196 -4.67225 3.1
      vertex 3.6677 -4.49264 4.1
      vertex 3.6677 -4.49264 3.1
    endloop
  endfacet
  facet normal -0.980771 0.19516 0
    outer loop
      vertex 3.6677 -4.49264 4.1
      vertex 3.63196 -4.67225 3.1
      vertex 3.63196 -4.67225 4.1
    endloop
  endfacet
  facet normal -1 0 0
    outer loop
      vertex 3.62 -10.155 3.1
      vertex 3.62 -4.85499 4.1
      vertex 3.62 -4.85499 3.1
    endloop
  endfacet
  facet normal -1 -0 0
    outer loop
      vertex 3.62 -4.85499 4.1
      vertex 3.62 -10.155 3.1
      vertex 3.62 -10.155 4.1
    endloop
  endfacet
  facet normal 0.99785 -0.0655402 0
    outer loop
      vertex 17.708 -10.3377 4.1
      vertex 17.72 -10.155 3.1
      vertex 17.72 -10.155 4.1
    endloop
  endfacet
  facet normal 0.99785 -0.0655402 0
    outer loop
      vertex 17.72 -10.155 3.1
      vertex 17.708 -10.3377 4.1
      vertex 17.708 -10.3377 3.1
    endloop
  endfacet
  facet normal -0.997865 0.0653085 0
    outer loop
      vertex 3.62 -4.85499 3.1
      vertex 3.63196 -4.67225 4.1
      vertex 3.63196 -4.67225 3.1
    endloop
  endfacet
  facet normal -0.997865 0.0653085 0
    outer loop
      vertex 3.63196 -4.67225 4.1
      vertex 3.62 -4.85499 3.1
      vertex 3.62 -4.85499 4.1
    endloop
  endfacet
  facet normal 0.321482 0.946916 -0
    outer loop
      vertex 16.8557 -3.56157 3.1
      vertex 16.6823 -3.5027 4.1
      vertex 16.8557 -3.56157 4.1
    endloop
  endfacet
  facet normal 0.321482 0.946916 0
    outer loop
      vertex 16.6823 -3.5027 4.1
      vertex 16.8557 -3.56157 3.1
      vertex 16.6823 -3.5027 3.1
    endloop
  endfacet
  facet normal -0.321629 -0.946866 0
    outer loop
      vertex 4.48424 -11.4484 3.1
      vertex 4.65764 -11.5073 4.1
      vertex 4.48424 -11.4484 4.1
    endloop
  endfacet
  facet normal -0.321629 -0.946866 -0
    outer loop
      vertex 4.65764 -11.5073 4.1
      vertex 4.48424 -11.4484 3.1
      vertex 4.65764 -11.5073 3.1
    endloop
  endfacet
  facet normal -0.19516 0.980771 0
    outer loop
      vertex 4.83725 -3.46696 3.1
      vertex 4.65764 -3.5027 4.1
      vertex 4.83725 -3.46696 4.1
    endloop
  endfacet
  facet normal -0.19516 0.980771 0
    outer loop
      vertex 4.65764 -3.5027 4.1
      vertex 4.83725 -3.46696 3.1
      vertex 4.65764 -3.5027 3.1
    endloop
  endfacet
  facet normal -0.980769 -0.195171 0
    outer loop
      vertex 3.6677 -10.5173 3.1
      vertex 3.63196 -10.3377 4.1
      vertex 3.63196 -10.3377 3.1
    endloop
  endfacet
  facet normal -0.980769 -0.195171 0
    outer loop
      vertex 3.63196 -10.3377 4.1
      vertex 3.6677 -10.5173 3.1
      vertex 3.6677 -10.5173 4.1
    endloop
  endfacet
  facet normal 0.194961 -0.980811 0
    outer loop
      vertex 16.5027 -11.543 3.1
      vertex 16.6823 -11.5073 4.1
      vertex 16.5027 -11.543 4.1
    endloop
  endfacet
  facet normal 0.194961 -0.980811 0
    outer loop
      vertex 16.6823 -11.5073 4.1
      vertex 16.5027 -11.543 3.1
      vertex 16.6823 -11.5073 3.1
    endloop
  endfacet
  facet normal -0.997864 -0.0653227 0
    outer loop
      vertex 3.63196 -10.3377 3.1
      vertex 3.62 -10.155 4.1
      vertex 3.62 -10.155 3.1
    endloop
  endfacet
  facet normal -0.997864 -0.0653227 0
    outer loop
      vertex 3.62 -10.155 4.1
      vertex 3.63196 -10.3377 3.1
      vertex 3.63196 -10.3377 4.1
    endloop
  endfacet
  facet normal 0.997851 0.0655259 0
    outer loop
      vertex 17.72 -4.85499 4.1
      vertex 17.708 -4.67225 3.1
      vertex 17.708 -4.67225 4.1
    endloop
  endfacet
  facet normal 0.997851 0.0655259 0
    outer loop
      vertex 17.708 -4.67225 3.1
      vertex 17.72 -4.85499 4.1
      vertex 17.72 -4.85499 3.1
    endloop
  endfacet
  facet normal -0.659401 0.751791 0
    outer loop
      vertex 4.16773 -3.74429 3.1
      vertex 4.03005 -3.86505 4.1
      vertex 4.16773 -3.74429 4.1
    endloop
  endfacet
  facet normal -0.659401 0.751791 0
    outer loop
      vertex 4.03005 -3.86505 4.1
      vertex 4.16773 -3.74429 3.1
      vertex 4.03005 -3.86505 3.1
    endloop
  endfacet
  facet normal 0.751493 -0.659741 0
    outer loop
      vertex 17.3099 -11.1449 4.1
      vertex 17.4307 -11.0073 3.1
      vertex 17.4307 -11.0073 4.1
    endloop
  endfacet
  facet normal 0.751493 -0.659741 0
    outer loop
      vertex 17.4307 -11.0073 3.1
      vertex 17.3099 -11.1449 4.1
      vertex 17.3099 -11.1449 3.1
    endloop
  endfacet
  facet normal 0 -1 0
    outer loop
      vertex 5.01999 -11.555 3.1
      vertex 16.32 -11.555 4.1
      vertex 5.01999 -11.555 4.1
    endloop
  endfacet
  facet normal 0 -1 -0
    outer loop
      vertex 16.32 -11.555 4.1
      vertex 5.01999 -11.555 3.1
      vertex 16.32 -11.555 3.1
    endloop
  endfacet
  facet normal 0.0655402 -0.99785 0
    outer loop
      vertex 16.32 -11.555 3.1
      vertex 16.5027 -11.543 4.1
      vertex 16.32 -11.555 4.1
    endloop
  endfacet
  facet normal 0.0655402 -0.99785 0
    outer loop
      vertex 16.5027 -11.543 4.1
      vertex 16.32 -11.555 3.1
      vertex 16.5027 -11.543 3.1
    endloop
  endfacet
  facet normal -0.751601 -0.659618 0
    outer loop
      vertex 4.03005 -11.1449 3.1
      vertex 3.90929 -11.0073 4.1
      vertex 3.90929 -11.0073 3.1
    endloop
  endfacet
  facet normal -0.751601 -0.659618 0
    outer loop
      vertex 3.90929 -11.0073 4.1
      vertex 4.03005 -11.1449 3.1
      vertex 4.03005 -11.1449 4.1
    endloop
  endfacet
  facet normal 1 -0 0
    outer loop
      vertex 17.72 -10.155 4.1
      vertex 17.72 -4.85499 3.1
      vertex 17.72 -4.85499 4.1
    endloop
  endfacet
  facet normal 1 0 0
    outer loop
      vertex 17.72 -4.85499 3.1
      vertex 17.72 -10.155 4.1
      vertex 17.72 -10.155 3.1
    endloop
  endfacet
  facet normal -0.0653085 0.997865 0
    outer loop
      vertex 5.01999 -3.455 3.1
      vertex 4.83725 -3.46696 4.1
      vertex 5.01999 -3.455 4.1
    endloop
  endfacet
  facet normal -0.0653085 0.997865 0
    outer loop
      vertex 4.83725 -3.46696 4.1
      vertex 5.01999 -3.455 3.1
      vertex 4.83725 -3.46696 3.1
    endloop
  endfacet
  facet normal 0.0653227 0.997864 -0
    outer loop
      vertex 16.5027 -3.46696 3.1
      vertex 16.32 -3.455 4.1
      vertex 16.5027 -3.46696 4.1
    endloop
  endfacet
  facet normal 0.0653227 0.997864 0
    outer loop
      vertex 16.32 -3.455 4.1
      vertex 16.5027 -3.46696 3.1
      vertex 16.32 -3.455 3.1
    endloop
  endfacet
  facet normal 0.896924 -0.442184 0
    outer loop
      vertex 17.5324 -10.855 4.1
      vertex 17.6134 -10.6907 3.1
      vertex 17.6134 -10.6907 4.1
    endloop
  endfacet
  facet normal 0.896924 -0.442184 0
    outer loop
      vertex 17.6134 -10.6907 3.1
      vertex 17.5324 -10.855 4.1
      vertex 17.5324 -10.855 3.1
    endloop
  endfacet
  facet normal 0.980811 -0.194961 0
    outer loop
      vertex 17.6723 -10.5173 4.1
      vertex 17.708 -10.3377 3.1
      vertex 17.708 -10.3377 4.1
    endloop
  endfacet
  facet normal 0.980811 -0.194961 0
    outer loop
      vertex 17.708 -10.3377 3.1
      vertex 17.6723 -10.5173 4.1
      vertex 17.6723 -10.5173 3.1
    endloop
  endfacet
  facet normal 0.83163 -0.55533 0
    outer loop
      vertex 17.4307 -11.0073 4.1
      vertex 17.5324 -10.855 3.1
      vertex 17.5324 -10.855 4.1
    endloop
  endfacet
  facet normal 0.83163 -0.55533 0
    outer loop
      vertex 17.5324 -10.855 3.1
      vertex 17.4307 -11.0073 4.1
      vertex 17.4307 -11.0073 3.1
    endloop
  endfacet
  facet normal 0.55533 -0.83163 0
    outer loop
      vertex 17.02 -11.3674 3.1
      vertex 17.1723 -11.2657 4.1
      vertex 17.02 -11.3674 4.1
    endloop
  endfacet
  facet normal 0.55533 -0.83163 0
    outer loop
      vertex 17.1723 -11.2657 4.1
      vertex 17.02 -11.3674 3.1
      vertex 17.1723 -11.2657 3.1
    endloop
  endfacet
  facet normal 0.659741 -0.751493 0
    outer loop
      vertex 17.1723 -11.2657 3.1
      vertex 17.3099 -11.1449 4.1
      vertex 17.1723 -11.2657 4.1
    endloop
  endfacet
  facet normal 0.659741 -0.751493 0
    outer loop
      vertex 17.3099 -11.1449 4.1
      vertex 17.1723 -11.2657 3.1
      vertex 17.3099 -11.1449 3.1
    endloop
  endfacet
  facet normal -0.0655259 -0.997851 0
    outer loop
      vertex 4.83725 -11.543 3.1
      vertex 5.01999 -11.555 4.1
      vertex 4.83725 -11.543 4.1
    endloop
  endfacet
  facet normal -0.0655259 -0.997851 -0
    outer loop
      vertex 5.01999 -11.555 4.1
      vertex 4.83725 -11.543 3.1
      vertex 5.01999 -11.555 3.1
    endloop
  endfacet
  facet normal -0.19495 -0.980813 0
    outer loop
      vertex 4.65764 -11.5073 3.1
      vertex 4.83725 -11.543 4.1
      vertex 4.65764 -11.5073 4.1
    endloop
  endfacet
  facet normal -0.19495 -0.980813 -0
    outer loop
      vertex 4.83725 -11.543 4.1
      vertex 4.65764 -11.5073 3.1
      vertex 4.83725 -11.543 3.1
    endloop
  endfacet
  facet normal -0.555406 -0.831579 0
    outer loop
      vertex 4.16773 -11.2657 3.1
      vertex 4.32 -11.3674 4.1
      vertex 4.16773 -11.2657 4.1
    endloop
  endfacet
  facet normal -0.555406 -0.831579 -0
    outer loop
      vertex 4.32 -11.3674 4.1
      vertex 4.16773 -11.2657 3.1
      vertex 4.32 -11.3674 3.1
    endloop
  endfacet
  facet normal -0.442314 -0.89686 0
    outer loop
      vertex 4.32 -11.3674 3.1
      vertex 4.48424 -11.4484 4.1
      vertex 4.32 -11.3674 4.1
    endloop
  endfacet
  facet normal -0.442314 -0.89686 -0
    outer loop
      vertex 4.48424 -11.4484 4.1
      vertex 4.32 -11.3674 3.1
      vertex 4.48424 -11.4484 3.1
    endloop
  endfacet
  facet normal -0.659524 -0.751683 0
    outer loop
      vertex 4.03005 -11.1449 3.1
      vertex 4.16773 -11.2657 4.1
      vertex 4.03005 -11.1449 4.1
    endloop
  endfacet
  facet normal -0.659524 -0.751683 -0
    outer loop
      vertex 4.16773 -11.2657 4.1
      vertex 4.03005 -11.1449 3.1
      vertex 4.16773 -11.2657 3.1
    endloop
  endfacet
  facet normal -0.896946 -0.44214 0
    outer loop
      vertex 3.80756 -10.855 3.1
      vertex 3.72657 -10.6907 4.1
      vertex 3.72657 -10.6907 3.1
    endloop
  endfacet
  facet normal -0.896946 -0.44214 0
    outer loop
      vertex 3.72657 -10.6907 4.1
      vertex 3.80756 -10.855 3.1
      vertex 3.80756 -10.855 4.1
    endloop
  endfacet
  facet normal -0.946916 -0.321482 0
    outer loop
      vertex 3.72657 -10.6907 3.1
      vertex 3.6677 -10.5173 4.1
      vertex 3.6677 -10.5173 3.1
    endloop
  endfacet
  facet normal -0.946916 -0.321482 0
    outer loop
      vertex 3.6677 -10.5173 4.1
      vertex 3.72657 -10.6907 3.1
      vertex 3.72657 -10.6907 4.1
    endloop
  endfacet
  facet normal -0.831554 -0.555443 0
    outer loop
      vertex 3.90929 -11.0073 3.1
      vertex 3.80756 -10.855 4.1
      vertex 3.80756 -10.855 3.1
    endloop
  endfacet
  facet normal -0.831554 -0.555443 0
    outer loop
      vertex 3.80756 -10.855 4.1
      vertex 3.90929 -11.0073 3.1
      vertex 3.90929 -11.0073 4.1
    endloop
  endfacet
  facet normal 0.44214 0.896946 -0
    outer loop
      vertex 17.02 -3.64256 3.1
      vertex 16.8557 -3.56157 4.1
      vertex 17.02 -3.64256 4.1
    endloop
  endfacet
  facet normal 0.44214 0.896946 0
    outer loop
      vertex 16.8557 -3.56157 4.1
      vertex 17.02 -3.64256 3.1
      vertex 16.8557 -3.56157 3.1
    endloop
  endfacet
  facet normal 0.659618 0.751601 -0
    outer loop
      vertex 17.3099 -3.86505 3.1
      vertex 17.1723 -3.74429 4.1
      vertex 17.3099 -3.86505 4.1
    endloop
  endfacet
  facet normal 0.659618 0.751601 0
    outer loop
      vertex 17.1723 -3.74429 4.1
      vertex 17.3099 -3.86505 3.1
      vertex 17.1723 -3.74429 3.1
    endloop
  endfacet
  facet normal 0.946866 0.321629 0
    outer loop
      vertex 17.6723 -4.49264 4.1
      vertex 17.6134 -4.31924 3.1
      vertex 17.6134 -4.31924 4.1
    endloop
  endfacet
  facet normal 0.946866 0.321629 0
    outer loop
      vertex 17.6134 -4.31924 3.1
      vertex 17.6723 -4.49264 4.1
      vertex 17.6723 -4.49264 3.1
    endloop
  endfacet
  facet normal 0.831579 0.555406 0
    outer loop
      vertex 17.5324 -4.155 4.1
      vertex 17.4307 -4.00273 3.1
      vertex 17.4307 -4.00273 4.1
    endloop
  endfacet
  facet normal 0.831579 0.555406 0
    outer loop
      vertex 17.4307 -4.00273 3.1
      vertex 17.5324 -4.155 4.1
      vertex 17.5324 -4.155 3.1
    endloop
  endfacet
  facet normal 0 1 -0
    outer loop
      vertex 16.32 -3.455 3.1
      vertex 5.01999 -3.455 4.1
      vertex 16.32 -3.455 4.1
    endloop
  endfacet
  facet normal 0 1 0
    outer loop
      vertex 5.01999 -3.455 4.1
      vertex 16.32 -3.455 3.1
      vertex 5.01999 -3.455 3.1
    endloop
  endfacet
  facet normal 0.195171 0.980769 -0
    outer loop
      vertex 16.6823 -3.5027 3.1
      vertex 16.5027 -3.46696 4.1
      vertex 16.6823 -3.5027 4.1
    endloop
  endfacet
  facet normal 0.195171 0.980769 0
    outer loop
      vertex 16.5027 -3.46696 4.1
      vertex 16.6823 -3.5027 3.1
      vertex 16.5027 -3.46696 3.1
    endloop
  endfacet
  facet normal -0.555519 0.831504 0
    outer loop
      vertex 4.32 -3.64256 3.1
      vertex 4.16773 -3.74429 4.1
      vertex 4.32 -3.64256 4.1
    endloop
  endfacet
  facet normal -0.555519 0.831504 0
    outer loop
      vertex 4.16773 -3.74429 4.1
      vertex 4.32 -3.64256 3.1
      vertex 4.16773 -3.74429 3.1
    endloop
  endfacet
  facet normal -0.321482 0.946916 0
    outer loop
      vertex 4.65764 -3.5027 3.1
      vertex 4.48424 -3.56157 4.1
      vertex 4.65764 -3.5027 4.1
    endloop
  endfacet
  facet normal -0.321482 0.946916 0
    outer loop
      vertex 4.48424 -3.56157 4.1
      vertex 4.65764 -3.5027 3.1
      vertex 4.48424 -3.56157 3.1
    endloop
  endfacet
  facet normal -0.751791 0.659401 0
    outer loop
      vertex 3.90929 -4.00273 3.1
      vertex 4.03005 -3.86505 4.1
      vertex 4.03005 -3.86505 3.1
    endloop
  endfacet
  facet normal -0.751791 0.659401 0
    outer loop
      vertex 4.03005 -3.86505 4.1
      vertex 3.90929 -4.00273 3.1
      vertex 3.90929 -4.00273 4.1
    endloop
  endfacet
  facet normal 0.946866 -0.321629 0
    outer loop
      vertex 17.6134 -10.6907 4.1
      vertex 17.6723 -10.5173 3.1
      vertex 17.6723 -10.5173 4.1
    endloop
  endfacet
  facet normal 0.946866 -0.321629 0
    outer loop
      vertex 17.6723 -10.5173 3.1
      vertex 17.6134 -10.6907 4.1
      vertex 17.6134 -10.6907 3.1
    endloop
  endfacet
  facet normal 0.442184 -0.896924 0
    outer loop
      vertex 16.8557 -11.4484 3.1
      vertex 17.02 -11.3674 4.1
      vertex 16.8557 -11.4484 4.1
    endloop
  endfacet
  facet normal 0.442184 -0.896924 0
    outer loop
      vertex 17.02 -11.3674 4.1
      vertex 16.8557 -11.4484 3.1
      vertex 17.02 -11.3674 3.1
    endloop
  endfacet
  facet normal 0.321629 -0.946866 0
    outer loop
      vertex 16.6823 -11.5073 3.1
      vertex 16.8557 -11.4484 4.1
      vertex 16.6823 -11.5073 4.1
    endloop
  endfacet
  facet normal 0.321629 -0.946866 0
    outer loop
      vertex 16.8557 -11.4484 4.1
      vertex 16.6823 -11.5073 3.1
      vertex 16.8557 -11.4484 3.1
    endloop
  endfacet
  facet normal 0.555443 0.831554 -0
    outer loop
      vertex 17.1723 -3.74429 3.1
      vertex 17.02 -3.64256 4.1
      vertex 17.1723 -3.74429 4.1
    endloop
  endfacet
  facet normal 0.555443 0.831554 0
    outer loop
      vertex 17.02 -3.64256 4.1
      vertex 17.1723 -3.74429 3.1
      vertex 17.02 -3.64256 3.1
    endloop
  endfacet
  facet normal 0.751683 0.659524 0
    outer loop
      vertex 17.4307 -4.00273 4.1
      vertex 17.3099 -3.86505 3.1
      vertex 17.3099 -3.86505 4.1
    endloop
  endfacet
  facet normal 0.751683 0.659524 0
    outer loop
      vertex 17.3099 -3.86505 3.1
      vertex 17.4307 -4.00273 4.1
      vertex 17.4307 -4.00273 3.1
    endloop
  endfacet
  facet normal 0.980813 0.19495 0
    outer loop
      vertex 17.708 -4.67225 4.1
      vertex 17.6723 -4.49264 3.1
      vertex 17.6723 -4.49264 4.1
    endloop
  endfacet
  facet normal 0.980813 0.19495 0
    outer loop
      vertex 17.6723 -4.49264 3.1
      vertex 17.708 -4.67225 4.1
      vertex 17.708 -4.67225 3.1
    endloop
  endfacet
  facet normal 0.89686 0.442314 0
    outer loop
      vertex 17.6134 -4.31924 4.1
      vertex 17.5324 -4.155 3.1
      vertex 17.5324 -4.155 4.1
    endloop
  endfacet
  facet normal 0.89686 0.442314 0
    outer loop
      vertex 17.5324 -4.155 3.1
      vertex 17.6134 -4.31924 4.1
      vertex 17.6134 -4.31924 3.1
    endloop
  endfacet
  facet normal -0.44227 0.896882 0
    outer loop
      vertex 4.48424 -3.56157 3.1
      vertex 4.32 -3.64256 4.1
      vertex 4.48424 -3.56157 4.1
    endloop
  endfacet
  facet normal -0.44227 0.896882 0
    outer loop
      vertex 4.32 -3.64256 4.1
      vertex 4.48424 -3.56157 3.1
      vertex 4.32 -3.64256 3.1
    endloop
  endfacet
  facet normal -0.831504 0.555519 0
    outer loop
      vertex 3.80756 -4.155 3.1
      vertex 3.90929 -4.00273 4.1
      vertex 3.90929 -4.00273 3.1
    endloop
  endfacet
  facet normal -0.831504 0.555519 0
    outer loop
      vertex 3.90929 -4.00273 4.1
      vertex 3.80756 -4.155 3.1
      vertex 3.80756 -4.155 4.1
    endloop
  endfacet
  facet normal -0.946916 0.321482 0
    outer loop
      vertex 3.6677 -4.49264 3.1
      vertex 3.72657 -4.31924 4.1
      vertex 3.72657 -4.31924 3.1
    endloop
  endfacet
  facet normal -0.946916 0.321482 0
    outer loop
      vertex 3.72657 -4.31924 4.1
      vertex 3.6677 -4.49264 3.1
      vertex 3.6677 -4.49264 4.1
    endloop
  endfacet
  facet normal -0.896882 0.44227 0
    outer loop
      vertex 3.72657 -4.31924 3.1
      vertex 3.80756 -4.155 4.1
      vertex 3.80756 -4.155 3.1
    endloop
  endfacet
  facet normal -0.896882 0.44227 0
    outer loop
      vertex 3.80756 -4.155 4.1
      vertex 3.72657 -4.31924 3.1
      vertex 3.72657 -4.31924 4.1
    endloop
  endfacet
endsolid OpenSCAD_Model
